<svg width="32" height="32" viewBox="0 0 32 32" fill="none" xmlns="http://www.w3.org/2000/svg">
<path d="M17.9976 9.33212C18.3658 9.33212 18.6642 9.03368 18.6642 8.66554C18.6642 8.2974 18.3658 7.99896 17.9976 7.99896C17.6295 7.99896 17.3311 8.2974 17.3311 8.66554C17.3311 9.03368 17.6295 9.33212 17.9976 9.33212Z" fill="white" stroke="white" stroke-width="2.66631" stroke-linecap="round" stroke-linejoin="round"/>
<path d="M23.3303 14.6647C23.6984 14.6647 23.9969 14.3663 23.9969 13.9981C23.9969 13.63 23.6984 13.3315 23.3303 13.3315C22.9621 13.3315 22.6637 13.63 22.6637 13.9981C22.6637 14.3663 22.9621 14.6647 23.3303 14.6647Z" fill="white" stroke="white" stroke-width="2.66631" stroke-linecap="round" stroke-linejoin="round"/>
<path d="M11.3319 10.6652C11.7 10.6652 11.9984 10.3668 11.9984 9.99867C11.9984 9.63053 11.7 9.33209 11.3319 9.33209C10.9637 9.33209 10.6653 9.63053 10.6653 9.99867C10.6653 10.3668 10.9637 10.6652 11.3319 10.6652Z" fill="white" stroke="white" stroke-width="2.66631" stroke-linecap="round" stroke-linejoin="round"/>
<path d="M8.66548 17.331C9.03362 17.331 9.33206 17.0326 9.33206 16.6644C9.33206 16.2963 9.03362 15.9979 8.66548 15.9979C8.29734 15.9979 7.9989 16.2963 7.9989 16.6644C7.9989 17.0326 8.29734 17.331 8.66548 17.331Z" fill="white" stroke="white" stroke-width="2.66631" stroke-linecap="round" stroke-linejoin="round"/>
<path d="M15.9978 2.66632C8.66546 2.66632 2.66626 8.66552 2.66626 15.9979C2.66626 23.3302 8.66546 29.3294 15.9978 29.3294C17.2323 29.3294 18.1949 28.3349 18.1949 27.0791C18.1949 26.4965 17.9549 25.9659 17.6123 25.5793C17.2257 25.194 17.0283 24.7101 17.0283 24.0795C17.0233 23.7861 17.0774 23.4946 17.1873 23.2226C17.2973 22.9505 17.4609 22.7033 17.6684 22.4958C17.8759 22.2883 18.1231 22.1247 18.3951 22.0147C18.6672 21.9048 18.9586 21.8507 19.2521 21.8558H21.913C25.9805 21.8558 29.3187 18.5189 29.3187 14.4514C29.2827 8.01494 23.2782 2.66632 15.9978 2.66632Z" stroke="white" stroke-width="2.66631" stroke-linecap="round" stroke-linejoin="round"/>
</svg>
