<svg width="33" height="33" viewBox="0 0 33 33" fill="none" xmlns="http://www.w3.org/2000/svg">
<path d="M16.0166 32.0332C13.8037 32.0332 11.7251 31.6143 9.78076 30.7764C7.84717 29.9492 6.1499 28.7998 4.68896 27.3281C3.22803 25.8672 2.07861 24.1699 1.24072 22.2363C0.413574 20.3027 0 18.2295 0 16.0166C0 14.1689 0.306152 12.4072 0.918457 10.7314C1.5415 9.05566 2.38477 7.54102 3.44824 6.1875C3.86719 5.61816 4.36133 5.30664 4.93066 5.25293C5.51074 5.18848 6.00488 5.35498 6.41309 5.75244C6.83203 6.1499 7.02002 6.58496 6.97705 7.05762C6.93408 7.53027 6.73535 8.02979 6.38086 8.55615C5.5752 9.57666 4.94678 10.7314 4.49561 12.0205C4.04443 13.2988 3.81348 14.6309 3.80273 16.0166C3.80273 17.7031 4.11426 19.2876 4.7373 20.77C5.37109 22.2417 6.24658 23.5361 7.36377 24.6533C8.48096 25.7705 9.77539 26.646 11.2471 27.2798C12.7295 27.9136 14.3193 28.2305 16.0166 28.2305C17.7246 28.2305 19.3145 27.9136 20.7861 27.2798C22.2578 26.646 23.5522 25.7705 24.6694 24.6533C25.7866 23.5361 26.6567 22.2417 27.2798 20.77C27.9136 19.2876 28.2305 17.7031 28.2305 16.0166C28.2305 14.2871 27.9082 12.6704 27.2637 11.1665C26.6191 9.6626 25.7222 8.34668 24.5728 7.21875C23.4233 6.09082 22.0859 5.21533 20.5605 4.59229C19.0459 3.96924 17.4185 3.6792 15.6782 3.72217L17.354 1.59521V6.97705C17.354 7.42822 17.209 7.80957 16.9189 8.12109C16.6289 8.43262 16.2583 8.58838 15.8071 8.58838C15.3452 8.58838 14.9639 8.43262 14.6631 8.12109C14.373 7.80957 14.228 7.42822 14.228 6.97705V1.70801C14.228 1.18164 14.3892 0.768066 14.7114 0.467285C15.0444 0.155762 15.4849 0 16.0327 0C18.2456 0 20.3188 0.413574 22.2524 1.24072C24.1968 2.06787 25.8994 3.21729 27.3604 4.68896C28.832 6.1499 29.9761 7.85254 30.7925 9.79688C31.6196 11.7305 32.0332 13.8037 32.0332 16.0166C32.0332 18.2295 31.6196 20.3027 30.7925 22.2363C29.9761 24.1699 28.832 25.8672 27.3604 27.3281C25.8887 28.7998 24.186 29.9492 22.2524 30.7764C20.3188 31.6143 18.2402 32.0332 16.0166 32.0332ZM16.0166 18.7397C15.5332 18.7397 15.082 18.6162 14.6631 18.3691C14.2549 18.1221 13.9165 17.7837 13.6479 17.354L9.26514 10.522C9.03955 10.1675 8.9751 9.83984 9.07178 9.53906C9.1792 9.23828 9.37793 9.03955 9.66797 8.94287C9.96875 8.83545 10.3018 8.89453 10.667 9.12012L17.499 13.7285C17.8965 13.9863 18.2026 14.3193 18.4175 14.7275C18.6323 15.1357 18.7397 15.5654 18.7397 16.0166C18.7397 16.7686 18.4712 17.4131 17.9341 17.9502C17.4077 18.4766 16.7686 18.7397 16.0166 18.7397Z" fill="white"/>
</svg>
