<svg width="32" height="32" viewBox="0 0 32 32" fill="none" xmlns="http://www.w3.org/2000/svg">
<path d="M7.73231 15.0647L2.66631 29.3295L16.9311 24.2768" stroke="white" stroke-width="2.66631" stroke-linecap="round" stroke-linejoin="round"/>
<path d="M5.33262 3.99951H5.34595" stroke="white" stroke-width="2.66631" stroke-linecap="round" stroke-linejoin="round"/>
<path d="M29.3294 10.6653H29.3428" stroke="white" stroke-width="2.66631" stroke-linecap="round" stroke-linejoin="round"/>
<path d="M19.9973 2.66626H20.0107" stroke="white" stroke-width="2.66631" stroke-linecap="round" stroke-linejoin="round"/>
<path d="M29.3294 26.6631H29.3428" stroke="white" stroke-width="2.66631" stroke-linecap="round" stroke-linejoin="round"/>
<path d="M29.3294 2.66626L26.3432 3.66613C25.4931 3.94927 24.7678 4.51887 24.2912 5.27754C23.8146 6.03622 23.6163 6.93688 23.7302 7.82557C23.8635 8.97209 22.9703 9.99862 21.7971 9.99862H21.2905C20.144 9.99862 19.1574 10.7985 18.9441 11.9184L18.6642 13.3315" stroke="white" stroke-width="2.66631" stroke-linecap="round" stroke-linejoin="round"/>
<path d="M29.3294 17.331L28.2362 16.8911C27.0897 16.4378 25.8099 17.1577 25.5966 18.3709C25.4499 19.3041 24.6367 19.9974 23.6902 19.9974H22.6636" stroke="white" stroke-width="2.66631" stroke-linecap="round" stroke-linejoin="round"/>
<path d="M14.6647 2.66626L15.1047 3.75945C15.5579 4.90596 14.838 6.18579 13.6249 6.3991C12.6916 6.53241 11.9984 7.35897 11.9984 8.30551V9.33204" stroke="white" stroke-width="2.66631" stroke-linecap="round" stroke-linejoin="round"/>
<path d="M14.6647 17.3311C17.2377 19.9041 18.4376 22.8903 17.331 23.9969C16.2245 25.1034 13.2383 23.9035 10.6653 21.3305C8.09228 18.7576 6.89244 15.7713 7.99896 14.6648C9.10548 13.5582 12.0917 14.7581 14.6647 17.3311Z" stroke="white" stroke-width="2.66631" stroke-linecap="round" stroke-linejoin="round"/>
</svg>
