<svg width="32" height="38" viewBox="0 0 32 38" fill="none" xmlns="http://www.w3.org/2000/svg">
<path d="M8.8623 0C10.3232 0 11.6768 0.338379 12.9229 1.01514C14.1797 1.68115 15.2163 2.59961 16.0327 3.77051C16.8599 4.94141 17.354 6.26807 17.5151 7.75049C17.5366 7.85791 17.5474 7.9707 17.5474 8.08887C17.5581 8.19629 17.5635 8.2876 17.5635 8.36279C17.5527 8.76025 17.4077 9.08789 17.1284 9.3457C16.8491 9.60352 16.5 9.73242 16.0811 9.73242C15.6836 9.73242 15.3667 9.61963 15.1304 9.39404C14.9048 9.15771 14.7651 8.84619 14.7114 8.45947C14.7007 8.39502 14.6953 8.34131 14.6953 8.29834C14.6953 8.25537 14.6899 8.2124 14.6792 8.16943C14.5718 7.17041 14.2441 6.27344 13.6963 5.47852C13.1484 4.68359 12.4502 4.05518 11.6016 3.59326C10.7637 3.13135 9.84521 2.90039 8.84619 2.90039C7.75049 2.90039 6.75146 3.16895 5.84912 3.70605C4.94678 4.23242 4.22705 4.94141 3.68994 5.83301C3.16357 6.72461 2.90039 7.71289 2.90039 8.79785C2.90039 9.47461 3.01318 10.1299 3.23877 10.7637C3.46436 11.3975 3.75977 11.9614 4.125 12.4556C4.39355 12.8208 4.49561 13.1807 4.43115 13.5352C4.37744 13.8896 4.21631 14.1851 3.94775 14.4214C3.6792 14.6577 3.35693 14.7759 2.98096 14.7759C2.74463 14.7759 2.51367 14.7222 2.28809 14.6147C2.0625 14.4966 1.86377 14.3086 1.69189 14.0508C1.16553 13.3418 0.751953 12.5254 0.451172 11.6016C0.150391 10.667 0 9.73242 0 8.79785C0 7.58398 0.230957 6.44531 0.692871 5.38184C1.15479 4.31836 1.78857 3.38379 2.59424 2.57812C3.41064 1.77246 4.35059 1.14404 5.41406 0.692871C6.48828 0.230957 7.6377 0 8.8623 0ZM23.7832 36.2065C21.0225 37.2163 18.4014 37.3398 15.9199 36.5771C13.4385 35.8252 11.1665 34.2139 9.104 31.7432L3.83496 25.4268C3.6416 25.1904 3.45898 24.9326 3.28711 24.6533C3.12598 24.3633 2.99707 24.0786 2.90039 23.7993C2.55664 22.854 2.58887 22 2.99707 21.2373C3.41602 20.4639 4.07129 19.916 4.96289 19.5938C5.5 19.4004 6.03711 19.3521 6.57422 19.4487C7.11133 19.5454 7.61621 19.7979 8.08887 20.2061L9.20068 21.3823C9.24365 21.4253 9.28662 21.436 9.32959 21.4146C9.40479 21.3931 9.42627 21.334 9.39404 21.2373L5.54297 10.667C5.14551 9.58203 5.15625 8.58838 5.5752 7.68604C5.99414 6.77295 6.72998 6.12305 7.78271 5.73633C8.82471 5.36035 9.78613 5.39258 10.667 5.83301C11.5586 6.2627 12.2031 7.02002 12.6006 8.10498L13.9541 11.8271C14.1582 11.6875 14.3623 11.5801 14.5664 11.5049C15.2217 11.2686 15.8501 11.231 16.4517 11.3921C17.0532 11.5532 17.585 11.8862 18.0469 12.3911C18.3584 12.1655 18.7021 11.9829 19.0781 11.8433C19.7334 11.6069 20.3618 11.5586 20.9634 11.6982C21.5649 11.8271 22.0752 12.1279 22.4941 12.6006C23.9658 12.1064 25.3032 12.2192 26.5063 12.939C27.7202 13.6587 28.644 14.8994 29.2778 16.6611L30.6797 20.4961C31.5605 22.9346 31.8667 25.1904 31.5981 27.2637C31.3403 29.3262 30.5454 31.1201 29.2134 32.6455C27.8921 34.1816 26.082 35.3687 23.7832 36.2065ZM22.7681 33.1289C24.4761 32.5059 25.8135 31.625 26.7803 30.4863C27.7471 29.3369 28.3164 27.9834 28.4883 26.4258C28.6602 24.8574 28.397 23.1387 27.6987 21.2695L26.3774 17.5957C26.0659 16.7471 25.7007 16.1509 25.2817 15.8071C24.8628 15.4634 24.4009 15.3828 23.896 15.5654L24.3311 16.7417C24.4492 17.0962 24.4277 17.4346 24.2666 17.7568C24.1162 18.0684 23.8745 18.2832 23.5415 18.4014C23.2085 18.5303 22.8755 18.5249 22.5425 18.3853C22.2202 18.2456 21.9946 18.0039 21.8657 17.6602L21.0439 15.356C20.8291 14.7759 20.4316 14.5879 19.8516 14.792C19.626 14.8779 19.4219 14.9961 19.2393 15.1465L20.1416 17.644C20.2598 17.9771 20.2437 18.2993 20.0933 18.6108C19.9429 18.9224 19.7012 19.1372 19.3682 19.2554C19.0459 19.3735 18.7236 19.3682 18.4014 19.2393C18.0791 19.0996 17.8589 18.8579 17.7407 18.5142L16.4839 15.0659C16.269 14.4644 15.877 14.2656 15.3076 14.4697C15.2002 14.5127 15.0874 14.5664 14.9692 14.6309C14.8618 14.6953 14.7651 14.7651 14.6792 14.8403L16.0005 18.4658C16.1294 18.7988 16.1133 19.1265 15.9521 19.4487C15.8018 19.771 15.5601 19.9858 15.2271 20.0933C14.894 20.2222 14.561 20.2168 14.228 20.0771C13.9058 19.9268 13.6802 19.6851 13.5513 19.3521L9.76465 8.92676C9.68945 8.70117 9.5498 8.54541 9.3457 8.45947C9.15234 8.36279 8.94824 8.35205 8.7334 8.42725C8.50781 8.51318 8.34668 8.6582 8.25 8.8623C8.16406 9.05566 8.16943 9.25977 8.26611 9.47461L13.7446 24.5889C13.9058 25.04 13.9004 25.4536 13.7285 25.8296C13.5566 26.1948 13.2773 26.4473 12.8906 26.5869C12.6006 26.6943 12.2944 26.7212 11.9722 26.6675C11.6499 26.603 11.333 26.415 11.0215 26.1035L7.23486 22.4458C6.94482 22.145 6.65479 22.0537 6.36475 22.1719C6.12842 22.2471 5.97266 22.376 5.89746 22.5586C5.82227 22.7305 5.82227 22.9077 5.89746 23.0903C5.95117 23.2515 6.03711 23.4072 6.15527 23.5576L11.5049 29.6807C13.2344 31.6895 15.0283 32.9517 16.8867 33.4673C18.7451 33.9829 20.7056 33.8701 22.7681 33.1289Z" fill="white"/>
</svg>
