<svg width="25" height="35" viewBox="0 0 25 35" fill="none" xmlns="http://www.w3.org/2000/svg">
<path d="M0 16.8062V13.8896C0 13.3955 0.171875 12.9766 0.515625 12.6328C0.870117 12.2891 1.2998 12.1172 1.80469 12.1172C2.30957 12.1172 2.73926 12.2891 3.09375 12.6328C3.45898 12.9766 3.6416 13.3955 3.6416 13.8896V16.6772C3.6416 18.4067 4.01758 19.916 4.76953 21.2051C5.53223 22.4941 6.57959 23.4932 7.91162 24.2021C9.24365 24.9111 10.769 25.2656 12.4878 25.2656C14.2065 25.2656 15.7319 24.9111 17.064 24.2021C18.396 23.4932 19.438 22.4941 20.1899 21.2051C20.9526 19.916 21.334 18.4067 21.334 16.6772V13.8896C21.334 13.3955 21.5112 12.9766 21.8657 12.6328C22.231 12.2891 22.666 12.1172 23.1709 12.1172C23.6758 12.1172 24.1001 12.2891 24.4438 12.6328C24.7983 12.9766 24.9756 13.3955 24.9756 13.8896V16.8062C24.9756 19.0298 24.5137 20.9849 23.5898 22.6714C22.6768 24.3579 21.4092 25.7168 19.7871 26.748C18.165 27.7686 16.3066 28.3862 14.2119 28.6011V31.1631H19.7388C20.2329 31.1631 20.6626 31.3403 21.0278 31.6948C21.3931 32.0493 21.5757 32.4736 21.5757 32.9678C21.5757 33.4619 21.3931 33.8809 21.0278 34.2246C20.6626 34.5791 20.2329 34.7563 19.7388 34.7563H5.25293C4.74805 34.7563 4.31299 34.5791 3.94775 34.2246C3.58252 33.8809 3.3999 33.4619 3.3999 32.9678C3.3999 32.4736 3.58252 32.0493 3.94775 31.6948C4.31299 31.3403 4.74805 31.1631 5.25293 31.1631H10.7637V28.6011C8.66895 28.3862 6.81055 27.7686 5.18848 26.748C3.56641 25.7168 2.29346 24.3579 1.36963 22.6714C0.456543 20.9849 0 19.0298 0 16.8062ZM6.26807 15.9683V6.59033C6.26807 5.30127 6.53662 4.1626 7.07373 3.17432C7.61084 2.18604 8.34668 1.4126 9.28125 0.854004C10.2158 0.284668 11.2847 0 12.4878 0C13.6909 0 14.7598 0.284668 15.6943 0.854004C16.6289 1.4126 17.3647 2.18604 17.9019 3.17432C18.439 4.1626 18.7075 5.30127 18.7075 6.59033V15.9683C18.7075 17.2573 18.439 18.4014 17.9019 19.4004C17.3647 20.3887 16.6289 21.1621 15.6943 21.7207C14.7598 22.2793 13.6909 22.5586 12.4878 22.5586C11.2847 22.5586 10.2158 22.2793 9.28125 21.7207C8.34668 21.1621 7.61084 20.3887 7.07373 19.4004C6.53662 18.4014 6.26807 17.2573 6.26807 15.9683ZM9.95801 16.0811C9.95801 16.9512 10.1782 17.6763 10.6187 18.2563C11.0698 18.8257 11.6929 19.1104 12.4878 19.1104C13.2827 19.1104 13.9004 18.8257 14.3408 18.2563C14.792 17.6763 15.0176 16.9512 15.0176 16.0811V6.47754C15.0176 5.60742 14.792 4.8877 14.3408 4.31836C13.9004 3.73828 13.2827 3.44824 12.4878 3.44824C11.6929 3.44824 11.0698 3.73828 10.6187 4.31836C10.1782 4.8877 9.95801 5.60742 9.95801 6.47754V16.0811Z" fill="white"/>
</svg>
