<svg width="35" height="25" viewBox="0 0 35 25" fill="none" xmlns="http://www.w3.org/2000/svg">
<path d="M4.49805 24.5957C3.03971 24.5957 1.92318 24.2129 1.14844 23.4473C0.382812 22.6816 0 21.5742 0 20.125V4.45703C0 3.00781 0.382812 1.90495 1.14844 1.14844C1.92318 0.382812 3.03971 0 4.49805 0H26.8652C28.3327 0 29.4492 0.382812 30.2148 1.14844C30.9805 1.91406 31.3633 3.01693 31.3633 4.45703V5.09961C30.8438 5.09961 30.3197 5.09961 29.791 5.09961C29.2715 5.09961 28.7474 5.09961 28.2188 5.09961V4.8125C28.2188 4.2474 28.0729 3.83268 27.7812 3.56836C27.4987 3.29492 27.0885 3.1582 26.5508 3.1582H4.8125C4.27474 3.1582 3.86458 3.29492 3.58203 3.56836C3.30859 3.8418 3.17188 4.26107 3.17188 4.82617V19.7695C3.17188 20.3346 3.30859 20.7539 3.58203 21.0273C3.86458 21.3008 4.27474 21.4375 4.8125 21.4375H21.1367C21.1367 21.6471 21.1367 21.8477 21.1367 22.0391C21.1458 22.2396 21.1504 22.4355 21.1504 22.627C21.1868 23.0007 21.2643 23.3516 21.3828 23.6797C21.5013 24.0169 21.6608 24.3223 21.8613 24.5957H4.49805ZM10.6641 20.3574C10.4635 20.3574 10.2949 20.2982 10.1582 20.1797C10.0306 20.0521 9.9668 19.8835 9.9668 19.6738C9.9668 19.4733 10.0306 19.3092 10.1582 19.1816C10.2949 19.0449 10.4635 18.9766 10.6641 18.9766H21.0957C21.0957 19.2135 21.0957 19.4505 21.0957 19.6875C21.0957 19.9154 21.0957 20.1387 21.0957 20.3574H10.6641ZM25.3203 24.5957C24.5182 24.5957 23.8848 24.3724 23.4199 23.9258C22.9551 23.4792 22.7227 22.8685 22.7227 22.0938V9.22852C22.7227 8.45378 22.9551 7.84766 23.4199 7.41016C23.8848 6.96354 24.5182 6.74023 25.3203 6.74023H31.6367C32.4206 6.74023 33.0358 6.96354 33.4824 7.41016C33.9382 7.85677 34.166 8.46745 34.166 9.24219V22.0938C34.166 22.8685 33.9382 23.4792 33.4824 23.9258C33.0358 24.3724 32.4206 24.5957 31.6367 24.5957H25.3203ZM25.6074 22.3262H31.2949C31.5228 22.3262 31.696 22.2624 31.8145 22.1348C31.9329 22.0072 31.9922 21.8294 31.9922 21.6016V9.73438C31.9922 9.4974 31.9329 9.3151 31.8145 9.1875C31.696 9.0599 31.5228 8.99609 31.2949 8.99609H25.6074C25.3704 8.99609 25.1882 9.0599 25.0605 9.1875C24.9421 9.30599 24.8828 9.48372 24.8828 9.7207V21.6016C24.8828 21.8385 24.9421 22.0163 25.0605 22.1348C25.1882 22.2624 25.3704 22.3262 25.6074 22.3262ZM26.7012 21.6016C26.3822 21.6016 26.2227 21.4421 26.2227 21.123C26.2227 20.8132 26.3822 20.6582 26.7012 20.6582H30.1875C30.3242 20.6582 30.4382 20.7038 30.5293 20.7949C30.6204 20.877 30.666 20.9863 30.666 21.123C30.666 21.4421 30.5065 21.6016 30.1875 21.6016H26.7012ZM27.4395 10.8691C27.248 10.8691 27.0885 10.8099 26.9609 10.6914C26.8424 10.5638 26.7832 10.4089 26.7832 10.2266C26.7832 10.0443 26.8424 9.89388 26.9609 9.77539C27.0885 9.6569 27.248 9.59766 27.4395 9.59766H29.4355C29.6087 9.59766 29.7591 9.6569 29.8867 9.77539C30.0143 9.89388 30.0781 10.0443 30.0781 10.2266C30.0781 10.4089 30.0143 10.5638 29.8867 10.6914C29.7682 10.8099 29.6178 10.8691 29.4355 10.8691H27.4395Z" fill="white"/>
</svg>
