<svg width="32" height="32" viewBox="0 0 32 32" fill="none" xmlns="http://www.w3.org/2000/svg">
<path d="M7.99888 21.3305C14.6647 21.3305 17.331 10.6652 23.9968 10.6652C25.4111 10.6652 26.7674 11.2271 27.7675 12.2271C28.7675 13.2272 29.3294 14.5835 29.3294 15.9978C29.3294 17.4121 28.7675 18.7685 27.7675 19.7686C26.7674 20.7686 25.4111 21.3305 23.9968 21.3305C17.331 21.3305 14.6647 10.6652 7.99888 10.6652C6.58458 10.6652 5.22821 11.2271 4.22815 12.2271C3.22809 13.2272 2.66626 14.5835 2.66626 15.9978C2.66626 17.4121 3.22809 18.7685 4.22815 19.7686C5.22821 20.7686 6.58458 21.3305 7.99888 21.3305Z" stroke="white" stroke-width="2.66631" stroke-linecap="round" stroke-linejoin="round"/>
</svg>
