<svg width="32" height="32" viewBox="0 0 32 32" fill="none" xmlns="http://www.w3.org/2000/svg">
<path d="M9.33213 3.99945H5.33267C4.59639 3.99945 3.99951 4.59632 3.99951 5.33261V9.33207C3.99951 10.0684 4.59639 10.6652 5.33267 10.6652H9.33213C10.0684 10.6652 10.6653 10.0684 10.6653 9.33207V5.33261C10.6653 4.59632 10.0684 3.99945 9.33213 3.99945Z" stroke="white" stroke-width="2.66631" stroke-linecap="round" stroke-linejoin="round"/>
<path d="M26.6631 3.99945H22.6636C21.9273 3.99945 21.3304 4.59632 21.3304 5.33261V9.33207C21.3304 10.0684 21.9273 10.6652 22.6636 10.6652H26.6631C27.3993 10.6652 27.9962 10.0684 27.9962 9.33207V5.33261C27.9962 4.59632 27.3993 3.99945 26.6631 3.99945Z" stroke="white" stroke-width="2.66631" stroke-linecap="round" stroke-linejoin="round"/>
<path d="M9.33213 21.3305H5.33267C4.59639 21.3305 3.99951 21.9274 3.99951 22.6637V26.6631C3.99951 27.3994 4.59639 27.9963 5.33267 27.9963H9.33213C10.0684 27.9963 10.6653 27.3994 10.6653 26.6631V22.6637C10.6653 21.9274 10.0684 21.3305 9.33213 21.3305Z" stroke="white" stroke-width="2.66631" stroke-linecap="round" stroke-linejoin="round"/>
<path d="M27.9962 21.3305H23.9968C23.2896 21.3305 22.6114 21.6114 22.1114 22.1115C21.6114 22.6115 21.3304 23.2897 21.3304 23.9968V27.9963" stroke="white" stroke-width="2.66631" stroke-linecap="round" stroke-linejoin="round"/>
<path d="M27.9962 27.9963V28.0096" stroke="white" stroke-width="2.66631" stroke-linecap="round" stroke-linejoin="round"/>
<path d="M15.9978 9.33209V13.3316C15.9978 14.0387 15.7169 14.7169 15.2169 15.2169C14.7168 15.717 14.0386 15.9979 13.3315 15.9979H9.33203" stroke="white" stroke-width="2.66631" stroke-linecap="round" stroke-linejoin="round"/>
<path d="M3.99951 15.9979H4.01284" stroke="white" stroke-width="2.66631" stroke-linecap="round" stroke-linejoin="round"/>
<path d="M15.9979 3.99945H16.0113" stroke="white" stroke-width="2.66631" stroke-linecap="round" stroke-linejoin="round"/>
<path d="M15.9979 21.3305V21.3438" stroke="white" stroke-width="2.66631" stroke-linecap="round" stroke-linejoin="round"/>
<path d="M21.3304 15.9979H22.6636" stroke="white" stroke-width="2.66631" stroke-linecap="round" stroke-linejoin="round"/>
<path d="M27.9962 15.9979V16.0112" stroke="white" stroke-width="2.66631" stroke-linecap="round" stroke-linejoin="round"/>
<path d="M15.9979 27.9962V26.6631" stroke="white" stroke-width="2.66631" stroke-linecap="round" stroke-linejoin="round"/>
</svg>
