<svg width="32" height="32" viewBox="0 0 32 32" fill="none" xmlns="http://www.w3.org/2000/svg">
<path d="M26.6631 17.331C26.6631 23.9967 21.9971 27.3296 16.4512 29.2627C16.1607 29.3611 15.8453 29.3564 15.5579 29.2494C9.99869 27.3296 5.33264 23.9967 5.33264 17.331V7.99887C5.33264 7.6453 5.4731 7.3062 5.72311 7.05619C5.97313 6.80617 6.31222 6.66572 6.6658 6.66572C9.33211 6.66572 12.665 5.06593 14.9847 3.03953C15.2671 2.79823 15.6264 2.66565 15.9979 2.66565C16.3694 2.66565 16.7287 2.79823 17.0111 3.03953C19.3441 5.07926 22.6637 6.66572 25.33 6.66572C25.6836 6.66572 26.0226 6.80617 26.2727 7.05619C26.5227 7.3062 26.6631 7.6453 26.6631 7.99887V17.331Z" stroke="white" stroke-width="2.66631" stroke-linecap="round" stroke-linejoin="round"/>
</svg>
