<svg width="34" height="28" viewBox="0 0 34 28" fill="none" xmlns="http://www.w3.org/2000/svg">
<path d="M3.89648 22.8184C2.68424 22.8184 1.73177 22.472 1.03906 21.7793C0.346354 21.0866 0 20.1341 0 18.9219V3.89648C0 2.67513 0.346354 1.72266 1.03906 1.03906C1.73177 0.346354 2.68424 0 3.89648 0H29.5039C30.7161 0 31.6686 0.346354 32.3613 1.03906C33.054 1.72266 33.4004 2.67513 33.4004 3.89648V18.9219C33.4004 20.1341 33.054 21.0866 32.3613 21.7793C31.6686 22.472 30.7161 22.8184 29.5039 22.8184H3.89648ZM4.19727 19.8105H29.2168C30.0007 19.8105 30.3926 19.4186 30.3926 18.6348V4.18359C30.3926 3.39974 30.0007 3.00781 29.2168 3.00781H4.19727C3.41341 3.00781 3.02148 3.39974 3.02148 4.18359V18.6348C3.02148 19.4186 3.41341 19.8105 4.19727 19.8105ZM9.93945 27.5352C9.56576 27.5352 9.24674 27.3984 8.98242 27.125C8.7181 26.8607 8.58594 26.5508 8.58594 26.1953C8.58594 25.8307 8.7181 25.5117 8.98242 25.2383C9.24674 24.974 9.56576 24.8418 9.93945 24.8418H23.4746C23.8392 24.8418 24.1536 24.974 24.418 25.2383C24.6823 25.5117 24.8145 25.8307 24.8145 26.1953C24.8145 26.5508 24.6823 26.8607 24.418 27.125C24.1536 27.3984 23.8392 27.5352 23.4746 27.5352H9.93945Z" fill="white"/>
</svg>
