<svg width="45" height="45" viewBox="0 -13.5 45 45" fill="none" xmlns="http://www.w3.org/2000/svg">
<path d="M11.5527 17.5137C10.3405 17.5137 9.20573 17.2858 8.14844 16.8301C7.09115 16.3743 6.16146 15.7454 5.35938 14.9434C4.55729 14.1413 3.92839 13.2116 3.47266 12.1543C3.02604 11.097 2.80273 9.96224 2.80273 8.75C2.80273 7.53776 3.02604 6.40755 3.47266 5.35938C3.92839 4.30208 4.55729 3.3724 5.35938 2.57031C6.16146 1.76823 7.09115 1.13932 8.14844 0.683594C9.20573 0.227865 10.3405 0 11.5527 0C12.765 0 13.8997 0.227865 14.957 0.683594C16.0143 1.13932 16.9395 1.76823 17.7324 2.57031C18.5345 3.3724 19.1634 4.30208 19.6191 5.35938C20.0749 6.40755 20.3027 7.53776 20.3027 8.75C20.3027 9.96224 20.0749 11.097 19.6191 12.1543C19.1634 13.2116 18.5345 14.1413 17.7324 14.9434C16.9395 15.7454 16.0143 16.3743 14.957 16.8301C13.8997 17.2858 12.765 17.5137 11.5527 17.5137ZM11.5527 14.2188C12.5553 14.2188 13.4668 13.9727 14.2871 13.4805C15.1165 12.9883 15.7773 12.3275 16.2695 11.498C16.7708 10.6686 17.0215 9.7526 17.0215 8.75C17.0215 7.7474 16.7708 6.83138 16.2695 6.00195C15.7773 5.17253 15.1165 4.51628 14.2871 4.0332C13.4668 3.54102 12.5553 3.29492 11.5527 3.29492C10.5501 3.29492 9.63411 3.54102 8.80469 4.0332C7.97526 4.51628 7.31445 5.17253 6.82227 6.00195C6.33008 6.83138 6.08398 7.7474 6.08398 8.75C6.08398 9.76172 6.33008 10.6823 6.82227 11.5117C7.31445 12.3411 7.97526 13.002 8.80469 13.4941C9.63411 13.9772 10.5501 14.2188 11.5527 14.2188ZM32.7441 17.5137C31.541 17.5137 30.4108 17.2858 29.3535 16.8301C28.2962 16.3743 27.362 15.7454 26.5508 14.9434C25.7487 14.1413 25.1243 13.2116 24.6777 12.1543C24.2311 11.097 24.0078 9.96224 24.0078 8.75C24.0078 7.53776 24.2311 6.40755 24.6777 5.35938C25.1243 4.30208 25.7487 3.3724 26.5508 2.57031C27.362 1.76823 28.2962 1.13932 29.3535 0.683594C30.4108 0.227865 31.541 0 32.7441 0C33.9564 0 35.0911 0.227865 36.1484 0.683594C37.2057 1.13932 38.1354 1.76823 38.9375 2.57031C39.7396 3.3724 40.3685 4.30208 40.8242 5.35938C41.2799 6.40755 41.5078 7.53776 41.5078 8.75C41.5078 9.96224 41.2799 11.097 40.8242 12.1543C40.3685 13.2116 39.7396 14.1413 38.9375 14.9434C38.1354 15.7454 37.2057 16.3743 36.1484 16.8301C35.0911 17.2858 33.9564 17.5137 32.7441 17.5137ZM32.7441 14.2188C33.7559 14.2188 34.6764 13.9772 35.5059 13.4941C36.3353 13.002 36.9961 12.3411 37.4883 11.5117C37.9805 10.6823 38.2266 9.76172 38.2266 8.75C38.2266 7.7474 37.9805 6.83138 37.4883 6.00195C36.9961 5.17253 36.3353 4.51628 35.5059 4.0332C34.6764 3.54102 33.7559 3.29492 32.7441 3.29492C31.7415 3.29492 30.8255 3.54102 29.9961 4.0332C29.1758 4.51628 28.5195 5.17253 28.0273 6.00195C27.5352 6.83138 27.2891 7.7474 27.2891 8.75C27.2891 9.7526 27.5352 10.6686 28.0273 11.498C28.5195 12.3275 29.1758 12.9883 29.9961 13.4805C30.8255 13.9727 31.7415 14.2188 32.7441 14.2188ZM3.77344 6.63086V10.0898H1.05273C0.350911 10.0898 0 9.73438 0 9.02344V7.69727C0 6.98633 0.350911 6.63086 1.05273 6.63086H3.77344ZM40.5371 10.0898V6.63086H43.2441C43.946 6.63086 44.2969 6.98633 44.2969 7.69727V9.02344C44.2969 9.73438 43.946 10.0898 43.2441 10.0898H40.5371ZM19.4688 9.7207V6.5625C19.8698 6.35286 20.3118 6.20247 20.7949 6.11133C21.2871 6.01107 21.7383 5.96094 22.1484 5.96094C22.5586 5.96094 23.0052 6.01107 23.4883 6.11133C23.9805 6.20247 24.4271 6.35286 24.8281 6.5625V9.7207C24.4727 9.47461 24.0488 9.29232 23.5566 9.17383C23.0645 9.05534 22.5951 8.99609 22.1484 8.99609C21.7018 8.99609 21.2324 9.05534 20.7402 9.17383C20.2572 9.29232 19.8333 9.47461 19.4688 9.7207Z" fill="white"/>
</svg>
