<svg width="31" height="28" viewBox="0 0 31 28" fill="none" xmlns="http://www.w3.org/2000/svg">
<path d="M3.48633 27.6719C1.16211 27.6719 0 26.8607 0 25.2383C0 24.3086 0.273438 23.3607 0.820312 22.3945C1.3763 21.4193 2.16016 20.5215 3.17188 19.7012C4.18359 18.8717 5.39128 18.2064 6.79492 17.7051C8.19857 17.1947 9.75716 16.9395 11.4707 16.9395C13.1751 16.9395 14.7292 17.1947 16.1328 17.7051C17.5365 18.2064 18.7441 18.8717 19.7559 19.7012C20.7767 20.5215 21.5605 21.4193 22.1074 22.3945C22.6634 23.3607 22.9414 24.3086 22.9414 25.2383C22.9414 26.8607 21.7793 27.6719 19.4551 27.6719H3.48633ZM3.30859 25.0469H19.6191C19.7467 25.0469 19.8379 25.0195 19.8926 24.9648C19.9473 24.9193 19.9746 24.8464 19.9746 24.7461C19.9746 24.2904 19.7878 23.7708 19.4141 23.1875C19.0404 22.6042 18.4889 22.0391 17.7598 21.4922C17.0306 20.9362 16.1374 20.4759 15.0801 20.1113C14.0319 19.7467 12.8288 19.5645 11.4707 19.5645C10.1126 19.5645 8.90495 19.7467 7.84766 20.1113C6.79948 20.4759 5.91081 20.9362 5.18164 21.4922C4.45247 22.0391 3.90104 22.6042 3.52734 23.1875C3.15365 23.7708 2.9668 24.2904 2.9668 24.7461C2.9668 24.8464 2.98958 24.9193 3.03516 24.9648C3.08984 25.0195 3.18099 25.0469 3.30859 25.0469ZM11.4707 15.5586C10.4134 15.5586 9.44727 15.2806 8.57227 14.7246C7.70638 14.1686 7.01367 13.4212 6.49414 12.4824C5.97461 11.5436 5.71484 10.5 5.71484 9.35156C5.71484 8.23047 5.97461 7.20508 6.49414 6.27539C7.01367 5.3457 7.70638 4.60742 8.57227 4.06055C9.44727 3.50456 10.4134 3.22656 11.4707 3.22656C12.5371 3.22656 13.5033 3.5 14.3691 4.04688C15.235 4.59375 15.9277 5.33203 16.4473 6.26172C16.9668 7.18229 17.2266 8.20768 17.2266 9.33789C17.2266 10.4772 16.9668 11.5208 16.4473 12.4688C15.9368 13.4167 15.2441 14.1686 14.3691 14.7246C13.5033 15.2806 12.5371 15.5586 11.4707 15.5586ZM11.4707 12.9473C12.0267 12.9473 12.5371 12.7878 13.002 12.4688C13.4668 12.1497 13.8359 11.7168 14.1094 11.1699C14.3919 10.623 14.5332 10.0124 14.5332 9.33789C14.5332 8.68164 14.3919 8.09375 14.1094 7.57422C13.8359 7.04557 13.4668 6.6263 13.002 6.31641C12.5371 6.00651 12.0267 5.85156 11.4707 5.85156C10.9238 5.85156 10.418 6.00651 9.95312 6.31641C9.48828 6.6263 9.11458 7.04557 8.83203 7.57422C8.55859 8.10286 8.42188 8.69076 8.42188 9.33789C8.42188 10.0215 8.55859 10.6367 8.83203 11.1836C9.11458 11.7214 9.48372 12.1497 9.93945 12.4688C10.4043 12.7878 10.9147 12.9473 11.4707 12.9473ZM21.1367 14.5195C20.8815 14.2826 20.7493 14 20.7402 13.6719C20.7311 13.3346 20.8405 13.0156 21.0684 12.7148C21.3691 12.2865 21.6152 11.7578 21.8066 11.1289C21.998 10.4909 22.0938 9.85286 22.0938 9.21484C22.0938 8.57682 21.998 7.94336 21.8066 7.31445C21.6152 6.67643 21.3691 6.14323 21.0684 5.71484C20.8496 5.41406 20.7402 5.09961 20.7402 4.77148C20.7493 4.44336 20.8815 4.15625 21.1367 3.91016C21.3828 3.66406 21.6927 3.55469 22.0664 3.58203C22.4401 3.60026 22.7637 3.77344 23.0371 4.10156C23.5475 4.71224 23.9349 5.46875 24.1992 6.37109C24.4727 7.27344 24.6094 8.22135 24.6094 9.21484C24.6094 10.2083 24.4727 11.1608 24.1992 12.0723C23.9349 12.9746 23.5475 13.7266 23.0371 14.3281C22.7637 14.6562 22.4401 14.834 22.0664 14.8613C21.6927 14.8887 21.3828 14.7747 21.1367 14.5195ZM25.8262 18.0605C25.571 17.8236 25.4434 17.5456 25.4434 17.2266C25.4525 16.8984 25.5755 16.584 25.8125 16.2832C26.5143 15.3717 27.0612 14.3008 27.4531 13.0703C27.8451 11.8398 28.041 10.5547 28.041 9.21484C28.041 7.88411 27.8496 6.60352 27.4668 5.37305C27.084 4.14258 26.5326 3.07161 25.8125 2.16016C25.5755 1.85938 25.4525 1.54948 25.4434 1.23047C25.4434 0.902344 25.571 0.619792 25.8262 0.382812C26.0996 0.127604 26.4186 0.00911458 26.7832 0.0273438C27.1478 0.0455729 27.4759 0.227865 27.7676 0.574219C28.6517 1.64062 29.3353 2.93945 29.8184 4.4707C30.3105 6.00195 30.5566 7.58333 30.5566 9.21484C30.5566 10.8555 30.3197 12.4323 29.8457 13.9453C29.3717 15.4583 28.679 16.7663 27.7676 17.8691C27.4668 18.2155 27.1341 18.3978 26.7695 18.416C26.4141 18.4342 26.0996 18.3158 25.8262 18.0605Z" fill="white"/>
</svg>
