<svg preserveAspectRatio="none" width="100%" height="100%" overflow="visible" style="display: block;" viewBox="0 0 27.9972 27.9972" fill="none" xmlns="http://www.w3.org/2000/svg">
<g id="Icon">
<path id="Vector" d="M18.6648 24.4975V22.1644C18.6648 20.9269 18.1732 19.74 17.2981 18.8649C16.423 17.9898 15.2361 17.4982 13.9986 17.4982H6.99929C5.76174 17.4982 4.57487 17.9898 3.69979 18.8649C2.82471 19.74 2.3331 20.9269 2.3331 22.1644V24.4975" stroke="var(--stroke-0, white)" stroke-width="2.3331" stroke-linecap="round" stroke-linejoin="round"/>
<path id="Vector_2" d="M10.4989 12.832C13.076 12.832 15.1651 10.7429 15.1651 8.16584C15.1651 5.58877 13.076 3.49964 10.4989 3.49964C7.92187 3.49964 5.83274 5.58877 5.83274 8.16584C5.83274 10.7429 7.92187 12.832 10.4989 12.832Z" stroke="var(--stroke-0, white)" stroke-width="2.3331" stroke-linecap="round" stroke-linejoin="round"/>
<path id="Vector_3" d="M25.6641 24.4974V22.1643C25.6633 21.1304 25.3192 20.1261 24.6858 19.3089C24.0523 18.4918 23.1655 17.9082 22.1644 17.6497" stroke="var(--stroke-0, white)" stroke-width="2.3331" stroke-linecap="round" stroke-linejoin="round"/>
<path id="Vector_4" d="M18.6648 3.65116C19.6685 3.90815 20.5581 4.49189 21.1934 5.31035C21.8287 6.12881 22.1736 7.13544 22.1736 8.17153C22.1736 9.20763 21.8287 10.2143 21.1934 11.0327C20.5581 11.8512 19.6685 12.4349 18.6648 12.6919" stroke="var(--stroke-0, white)" stroke-width="2.3331" stroke-linecap="round" stroke-linejoin="round"/>
</g>
</svg>
