<svg preserveAspectRatio="none" width="100%" height="100%" overflow="visible" style="display: block;" viewBox="0 0 27.9972 27.9972" fill="none" xmlns="http://www.w3.org/2000/svg">
<g id="Icon">
<path id="Vector" d="M20.9979 2.3331H6.99929C5.71076 2.3331 4.66619 3.37766 4.66619 4.66619V23.331C4.66619 24.6195 5.71076 25.6641 6.99929 25.6641H20.9979C22.2864 25.6641 23.331 24.6195 23.331 23.331V4.66619C23.331 3.37766 22.2864 2.3331 20.9979 2.3331Z" stroke="var(--stroke-0, white)" stroke-width="2.3331" stroke-linecap="round" stroke-linejoin="round"/>
<path id="Vector_2" d="M10.4989 25.6641V20.9979H17.4982V25.6641" stroke="var(--stroke-0, white)" stroke-width="2.3331" stroke-linecap="round" stroke-linejoin="round"/>
<path id="Vector_3" d="M9.33239 6.99929H9.34405" stroke="var(--stroke-0, white)" stroke-width="2.3331" stroke-linecap="round" stroke-linejoin="round"/>
<path id="Vector_4" d="M18.6648 6.99929H18.6764" stroke="var(--stroke-0, white)" stroke-width="2.3331" stroke-linecap="round" stroke-linejoin="round"/>
<path id="Vector_5" d="M13.9986 6.99929H14.0102" stroke="var(--stroke-0, white)" stroke-width="2.3331" stroke-linecap="round" stroke-linejoin="round"/>
<path id="Vector_6" d="M13.9986 11.6655H14.0102" stroke="var(--stroke-0, white)" stroke-width="2.3331" stroke-linecap="round" stroke-linejoin="round"/>
<path id="Vector_7" d="M13.9986 16.3317H14.0102" stroke="var(--stroke-0, white)" stroke-width="2.3331" stroke-linecap="round" stroke-linejoin="round"/>
<path id="Vector_8" d="M18.6648 11.6655H18.6764" stroke="var(--stroke-0, white)" stroke-width="2.3331" stroke-linecap="round" stroke-linejoin="round"/>
<path id="Vector_9" d="M18.6648 16.3317H18.6764" stroke="var(--stroke-0, white)" stroke-width="2.3331" stroke-linecap="round" stroke-linejoin="round"/>
<path id="Vector_10" d="M9.33239 11.6655H9.34405" stroke="var(--stroke-0, white)" stroke-width="2.3331" stroke-linecap="round" stroke-linejoin="round"/>
<path id="Vector_11" d="M9.33239 16.3317H9.34405" stroke="var(--stroke-0, white)" stroke-width="2.3331" stroke-linecap="round" stroke-linejoin="round"/>
</g>
</svg>
