<svg preserveAspectRatio="none" width="100%" height="100%" overflow="visible" style="display: block;" viewBox="0 0 27.9972 27.9972" fill="none" xmlns="http://www.w3.org/2000/svg">
<g id="Icon">
<path id="Vector" d="M24.9875 12.7412C25.1963 12.649 25.3735 12.4977 25.4972 12.3058C25.6208 12.114 25.6855 11.89 25.6831 11.6618C25.6807 11.4336 25.6115 11.211 25.4839 11.0218C25.3563 10.8325 25.176 10.6848 24.9653 10.5971L14.9668 6.04285C14.6629 5.90421 14.3327 5.83246 13.9986 5.83246C13.6645 5.83246 13.3343 5.90421 13.0303 6.04285L3.03302 10.5924C2.82534 10.6833 2.64866 10.8329 2.5246 11.0226C2.40054 11.2124 2.33447 11.4342 2.33447 11.6609C2.33447 11.8877 2.40054 12.1095 2.5246 12.2993C2.64866 12.489 2.82534 12.6385 3.03302 12.7295L13.0303 17.2884C13.3343 17.427 13.6645 17.4988 13.9986 17.4988C14.3327 17.4988 14.6629 17.427 14.9668 17.2884L24.9875 12.7412Z" stroke="var(--stroke-0, white)" stroke-width="2.3331" stroke-linecap="round" stroke-linejoin="round"/>
<path id="Vector_2" d="M25.6641 11.6655V18.6648" stroke="var(--stroke-0, white)" stroke-width="2.3331" stroke-linecap="round" stroke-linejoin="round"/>
<path id="Vector_3" d="M6.99929 14.5819V18.6648C6.99929 19.5929 7.73671 20.4831 9.04933 21.1394C10.362 21.7957 12.1423 22.1644 13.9986 22.1644C15.8549 22.1644 17.6352 21.7957 18.9478 21.1394C20.2604 20.4831 20.9979 19.5929 20.9979 18.6648V14.5819" stroke="var(--stroke-0, white)" stroke-width="2.3331" stroke-linecap="round" stroke-linejoin="round"/>
</g>
</svg>
