<svg preserveAspectRatio="none" width="100%" height="100%" overflow="visible" style="display: block;" viewBox="0 0 27.9972 27.9972" fill="none" xmlns="http://www.w3.org/2000/svg">
<g id="Icon">
<path id="Vector" d="M6.76598 13.1821L2.3331 25.6641L14.8152 21.2429" stroke="var(--stroke-0, white)" stroke-width="2.3331" stroke-linecap="round" stroke-linejoin="round"/>
<path id="Vector_2" d="M4.66619 3.49964H4.67786" stroke="var(--stroke-0, white)" stroke-width="2.3331" stroke-linecap="round" stroke-linejoin="round"/>
<path id="Vector_3" d="M25.6641 9.33239H25.6757" stroke="var(--stroke-0, white)" stroke-width="2.3331" stroke-linecap="round" stroke-linejoin="round"/>
<path id="Vector_4" d="M17.4982 2.3331H17.5099" stroke="var(--stroke-0, white)" stroke-width="2.3331" stroke-linecap="round" stroke-linejoin="round"/>
<path id="Vector_5" d="M25.6641 23.331H25.6757" stroke="var(--stroke-0, white)" stroke-width="2.3331" stroke-linecap="round" stroke-linejoin="round"/>
<path id="Vector_6" d="M25.6641 2.3331L23.051 3.20801C22.3072 3.45577 21.6725 3.95418 21.2555 4.61804C20.8384 5.28191 20.6649 6.07001 20.7646 6.84764C20.8812 7.85087 20.0996 8.74911 19.0731 8.74911H18.6298C17.6265 8.74911 16.7633 9.44904 16.5767 10.4289L16.3317 11.6655" stroke="var(--stroke-0, white)" stroke-width="2.3331" stroke-linecap="round" stroke-linejoin="round"/>
<path id="Vector_7" d="M25.6641 15.165L24.7075 14.7801C23.7043 14.3835 22.5844 15.0134 22.3977 16.075C22.2694 16.8915 21.5578 17.4981 20.7296 17.4981H19.8313" stroke="var(--stroke-0, white)" stroke-width="2.3331" stroke-linecap="round" stroke-linejoin="round"/>
<path id="Vector_8" d="M12.832 2.3331L13.217 3.28967C13.6136 4.2929 12.9837 5.41278 11.9221 5.59943C11.1055 5.71609 10.4989 6.43935 10.4989 7.2676V8.16584" stroke="var(--stroke-0, white)" stroke-width="2.3331" stroke-linecap="round" stroke-linejoin="round"/>
<path id="Vector_9" d="M12.832 15.1651C15.0835 17.4166 16.1333 20.0297 15.1651 20.9979C14.1969 21.9661 11.5838 20.9162 9.33237 18.6648C7.08093 16.4134 6.03104 13.8003 6.99927 12.8321C7.96751 11.8638 10.5806 12.9137 12.832 15.1651Z" stroke="var(--stroke-0, white)" stroke-width="2.3331" stroke-linecap="round" stroke-linejoin="round"/>
</g>
</svg>
