<svg preserveAspectRatio="none" width="100%" height="100%" overflow="visible" style="display: block;" viewBox="0 0 27.9972 27.9972" fill="none" xmlns="http://www.w3.org/2000/svg">
<g id="Icon">
<path id="Vector" d="M18.6648 23.331V4.66619C18.6648 4.04742 18.419 3.45398 17.9814 3.01644C17.5439 2.5789 16.9505 2.3331 16.3317 2.3331H11.6655C11.0467 2.3331 10.4533 2.5789 10.0157 3.01644C9.57819 3.45398 9.33239 4.04742 9.33239 4.66619V23.331" stroke="var(--stroke-0, white)" stroke-width="2.3331" stroke-linecap="round" stroke-linejoin="round"/>
<path id="Vector_2" d="M23.331 6.99929H4.66619C3.37766 6.99929 2.3331 8.04385 2.3331 9.33239V20.9979C2.3331 22.2864 3.37766 23.331 4.66619 23.331H23.331C24.6195 23.331 25.6641 22.2864 25.6641 20.9979V9.33239C25.6641 8.04385 24.6195 6.99929 23.331 6.99929Z" stroke="var(--stroke-0, white)" stroke-width="2.3331" stroke-linecap="round" stroke-linejoin="round"/>
</g>
</svg>
